<?xml version="1.0" encoding="UTF-8"?><svg id="Layer_3" xmlns="http://www.w3.org/2000/svg" viewBox="0 0 6235 1208"><g><path d="M19,880c-5.34,0-7.67-2.66-7-8l5-48c.66-5.33,3.66-8,9-8H362l-112-232-128,192c-2.67,2.67-5.34,4-8,4l-34-26c-2.67-1.33-4.5-3.33-5.5-6-1-2.66,.16-5.33,3.5-8l142-212L78,240l1-4,5-52c.66-5.33,3.66-8,9-8H493c5.33,0,7.66,2.67,7,8l-5,52-1,4-202,288,142,288-1,4-5,52c-.67,5.34-3.67,8-9,8H19Zm242-404l161-236H150l111,236Z"/><path d="M547,880c-5.34,0-7.67-2.66-7-8l5-48c.66-5.33,3.66-8,9-8h168l60-576h-136c-5.34,0-7.67-2.66-7-8l5-48c.66-5.33,3.66-8,9-8h336c5.33,0,7.66,2.67,7,8l-5,48c-.67,5.34-3.67,8-9,8h-136l-60,576h168c5.33,0,7.66,2.67,7,8l-5,48c-.67,5.34-3.67,8-9,8h-400Z"/><path d="M1059,880c-5.34,0-7.67-2.66-7-8l5-48c.66-5.33,3.66-8,9-8h304l-252-576,1-4,5-52c.66-5.33,3.66-8,9-8h368c5.33,0,7.66,2.67,7,8l-5,48c-.67,5.34-3.67,8-9,8h-300l248,576-1,4-5,52c-.67,5.34-3.67,8-9,8h-368Z"/><path d="M1905,828c-41.34,37.34-91.34,56-150,56s-104.67-18.66-138-56c-38.67-42.66-55.34-86.66-50-132l53-512c.66-5.33,3.66-8,9-8h48c5.33,0,7.66,2.67,7,8l-53,504c-3.34,34.67,9.33,66.67,38,96,22,24,53,36,93,36s73-12,99-36c35.33-32,54.66-64,58-96l53-504c.66-5.33,3.66-8,9-8h48c5.33,0,7.66,2.67,7,8l-53,512c-5.34,45.34-31.34,89.34-78,132Z"/><path d="M2237,880v-154h134v154h-134Z"/><path d="M2849,176c46,2,73.33,8.67,82,20l10-21c1.33-4,5-5.33,11-4l43,22c4,2.67,5.33,6.34,4,11l-20,32c10,9.34,22,32,36,68,23.33,58.67,30.33,133.34,21,224-9.34,88-35,165.34-77,232-48,80-109.34,120-184,120-55.34-2.66-92.34-18.66-111-48l-23,41c-2,4-5,5.34-9,4l-45-23c-4.67-1.33-5.34-4.66-2-10l40-69c-10.67-14-22.34-50.33-35-109-.67-5.33,2-8.66,8-10l46-16h4l3,4c5.33,32.67,8.33,53.34,9,62l231-442c-6-16-22.34-24-49-24-32,0-63,15.34-93,46-30,30.67-54.34,71.34-73,122,0,2.67-1.34,4-4,4h-8l-39-12c-4.67-2.66-7-6.66-7-12,58-141.33,135-212,231-212Zm-155,596c8.66,29.34,37.66,44,87,44,53.33,0,96.83-32,130.5-96,33.66-64,53.83-128,60.5-192,8.66-82.66,.33-151.33-25-206l-8-11-245,461Z"/><path d="M3291,884c-61.34,0-110.5-33.33-147.5-100-37-66.66-49.17-161.33-36.5-284,8-74.66,37-146.66,87-216,50-69.33,107-104,171-104,69.33,0,121.33,38.67,156,116,28,64,39.66,129.34,35,196,0,2.67-.84,4.67-2.5,6-1.67,1.34-3.84,2-6.5,2h-376c-10,96-3.34,173.34,20,232,23.33,58.67,59,88,107,88,45.33,0,85.5-26.66,120.5-80,35-53.33,56.83-109.33,65.5-168,.66-5.33,3.66-8,9-8l47,4c2.66,0,4.66,.67,6,2,1.33,1.34,1.66,3.34,1,6-8,56-30,113.34-66,172-52,90.67-115.34,136-190,136Zm152-588c-22-34.66-50.34-52-85-52s-66.5,17.34-95.5,52c-29,34.67-47.84,62.67-56.5,84-8.67,21.34-15.34,40-20,56h304c-.67-16-3.34-34.66-8-56-4.67-21.33-17.67-49.33-39-84Z"/><path d="M3699,880c-5.34,0-8-2.66-8-8l6-56,81-160-136-460c.66-2.66,1.83-5.33,3.5-8,1.66-2.66,3.83-4,6.5-4l45-16c2.66,0,5.33,1.34,8,4l114,404,198-404c2.66-2.66,5.33-4,8-4l43,12c2.66,0,4.5,1.34,5.5,4,1,2.67,1.5,5.34,1.5,8l-232,460,47,156-7,64c0,5.34-2.67,8-8,8h-176Zm62-64h64l-24-76-40,76Z"/></g><g><path d="M4108.05,880c-3.76,0-5.39-1.87-4.92-5.62l3.52-33.75c.46-3.75,2.57-5.62,6.33-5.62h208.12l-185.62-244.69c-1.88-1.87-2.58-3.75-2.11-5.62l3.52-36.56c.46-3.75,2.57-5.62,6.33-5.62h258.75c3.75,0,5.38,1.88,4.92,5.62l-3.52,33.75c-.47,3.76-2.58,5.62-6.33,5.62h-208.12l185.62,244.69c1.87,1.88,2.57,3.76,2.11,5.62l-3.52,36.56c-.47,3.76-2.58,5.62-6.33,5.62h-258.75Z"/><path d="M4502.5,880c-3.76,0-5.39-1.87-4.92-5.62l4.22-39.38,85.08-357.19c0-1.87,.93-2.81,2.81-2.81l33.05,5.62c1.87,0,3.16,.94,3.87,2.81,.7,1.88,1.05,3.76,1.05,5.62l-80.86,345.94h175.08c3.75,0,5.38,1.88,4.92,5.62l-3.52,33.75c-.47,3.76-2.58,5.62-6.33,5.62h-214.45Z"/><path d="M4979.22,885.63c-1.88,0-3.52-1.88-4.92-5.62l-10.55-225-91.41,219.38c0,1.88-1.88,2.81-5.62,2.81l-30.94-11.25c-1.88,0-2.93-.93-3.16-2.81-.24-1.87,.11-3.75,1.05-5.62l125.16-289.69c1.87-1.87,3.75-2.81,5.62-2.81h36.56c3.75,0,5.38,1.88,4.92,5.62l14.77,267.19,99.14-8.44c3.75,0,5.62,1.88,5.62,5.62l-1.41,33.75c0,3.76-1.88,5.62-5.62,5.62l-139.22,11.25Zm4.22-365.62c-3.76,0-5.39-1.87-4.92-5.62l3.52-33.75c0-3.75,1.87-5.62,5.62-5.62h33.75c3.75,0,5.62,1.88,5.62,5.62l-3.52,33.75c-.47,3.76-2.58,5.62-6.33,5.62h-33.75Z"/><path d="M5343.44,545.31c20.15,0,31.4,.94,33.75,2.81l7.73-14.77c1.41-3.27,3.75-4.22,7.03-2.81l34.45,12.66c2.81,1.41,3.27,3.76,1.41,7.03l-7.03,15.47c5.15,1.88,15.93,12.9,32.34,33.05,24.84,31.88,34.91,70.31,30.23,115.31-4.69,43.13-22.74,80.63-54.14,112.5-33.75,37.51-74.07,56.25-120.94,56.25-30.94-.47-51.8-4.92-62.58-13.36l-4.92,7.73c-1.41,2.35-3.99,3.27-7.73,2.81l-33.75-16.17c-2.81-2.34-3.29-4.92-1.41-7.73l8.44-13.36c-7.03-4.68-15.94-20.39-26.72-47.11-1.88-3.75-.7-6.56,3.52-8.44l29.53-16.88h5.62l2.81,2.81c3.27,9.84,7.26,17.35,11.95,22.5l117.42-205.31c-2.35-.46-6.33-.46-11.95,0-43.13,0-78.05,20.63-104.77,61.88-1.88,1.88-3.76,2.81-5.62,2.81h-2.81l-26.72-14.06c-2.81-1.87-3.52-4.68-2.11-8.44,39.84-58.12,88.82-87.19,146.95-87.19Zm-74.53,284.06c5.15,5.62,19.69,8.44,43.59,8.44,35.62,0,64.57-12.18,86.84-36.56,22.26-24.37,35.27-53.44,39.02-87.19,3.75-35.62-3.99-65.15-23.2-88.59-10.79-13.12-17.12-19.21-18.98-18.28l-127.27,222.19Z"/><path d="M5677.42,882.81c-41.25,0-74.3-16.4-99.14-49.22-24.85-32.81-34.7-72.65-29.53-119.53,5.15-46.87,23.43-86.71,54.84-119.53,31.4-32.81,67.73-49.22,108.98-49.22s74.29,16.41,99.14,49.22c24.84,32.82,33.75,72.66,26.72,119.53,0,1.88-.24,3.76-.7,5.62-.47,3.76-2.58,5.62-6.33,5.62h-239.06c-1.41,31.88,6.68,58.6,24.26,80.16,17.58,21.57,39.48,32.34,65.74,32.34,39.38,0,73.12-24.37,101.25-73.12,.46-1.87,1.64-2.81,3.52-2.81l30.94,9.84c1.87,0,3.27,.94,4.22,2.81,.93,1.88,1.16,3.76,.7,5.62-14.54,30.94-34.93,55.79-61.17,74.53-26.26,18.75-54.38,28.12-84.38,28.12Zm88.59-267.19c-16.41-16.88-35.86-25.31-58.36-25.31s-43.48,8.44-62.93,25.31c-19.46,16.88-34.34,38.44-44.65,64.69h196.88c-4.69-26.25-15.01-47.81-30.94-64.69Z"/><path d="M5908.05,880c-3.76,0-5.39-1.87-4.92-5.62l3.52-33.75c.46-3.75,2.57-5.62,6.33-5.62h208.12l-185.62-244.69c-1.88-1.87-2.58-3.75-2.11-5.62l3.52-36.56c.46-3.75,2.57-5.62,6.33-5.62h258.75c3.75,0,5.38,1.88,4.92,5.62l-3.52,33.75c-.47,3.76-2.58,5.62-6.33,5.62h-208.12l185.62,244.69c1.87,1.88,2.57,3.76,2.11,5.62l-3.52,36.56c-.47,3.76-2.58,5.62-6.33,5.62h-258.75Z"/></g></svg>